<svg id="visual" viewBox="0 0 960 540" width="960" height="540" xmlns="http://www.w3.org/2000/svg" xmlns:xlink="http://www.w3.org/1999/xlink" version="1.1"><path d="M0 179L10.7 182.7C21.3 186.3 42.7 193.7 64 170.5C85.3 147.3 106.7 93.7 128 69.2C149.3 44.7 170.7 49.3 192 66C213.3 82.7 234.7 111.3 256 131.7C277.3 152 298.7 164 320 157.3C341.3 150.7 362.7 125.3 384 122.2C405.3 119 426.7 138 448 137.2C469.3 136.3 490.7 115.7 512 95.5C533.3 75.3 554.7 55.7 576 65.3C597.3 75 618.7 114 640 117.8C661.3 121.7 682.7 90.3 704 82C725.3 73.7 746.7 88.3 768 105.2C789.3 122 810.7 141 832 141.3C853.3 141.7 874.7 123.3 896 112C917.3 100.7 938.7 96.3 949.3 94.2L960 92L960 0L949.3 0C938.7 0 917.3 0 896 0C874.7 0 853.3 0 832 0C810.7 0 789.3 0 768 0C746.7 0 725.3 0 704 0C682.7 0 661.3 0 640 0C618.7 0 597.3 0 576 0C554.7 0 533.3 0 512 0C490.7 0 469.3 0 448 0C426.7 0 405.3 0 384 0C362.7 0 341.3 0 320 0C298.7 0 277.3 0 256 0C234.7 0 213.3 0 192 0C170.7 0 149.3 0 128 0C106.7 0 85.3 0 64 0C42.7 0 21.3 0 10.7 0L0 0Z" fill="#633603" stroke-linecap="round" stroke-linejoin="miter"></path></svg>