<svg id="visual" viewBox="0 0 960 540" width="960" height="540" xmlns="http://www.w3.org/2000/svg" xmlns:xlink="http://www.w3.org/1999/xlink" version="1.1"><path d="M0 488L7.3 474.7C14.7 461.3 29.3 434.7 43.8 439.8C58.3 445 72.7 482 87.2 490.3C101.7 498.7 116.3 478.3 131 466.3C145.7 454.3 160.3 450.7 174.8 452C189.3 453.3 203.7 459.7 218.2 468.3C232.7 477 247.3 488 261.8 484.3C276.3 480.7 290.7 462.3 305.2 456.2C319.7 450 334.3 456 349 456.8C363.7 457.7 378.3 453.3 392.8 458.5C407.3 463.7 421.7 478.3 436.2 483.8C450.7 489.3 465.3 485.7 480 473.3C494.7 461 509.3 440 523.8 428C538.3 416 552.7 413 567.2 416.8C581.7 420.7 596.3 431.3 611 447.2C625.7 463 640.3 484 654.8 476.2C669.3 468.3 683.7 431.7 698.2 418.2C712.7 404.7 727.3 414.3 741.8 433.7C756.3 453 770.7 482 785.2 474.8C799.7 467.7 814.3 424.3 829 409.5C843.7 394.7 858.3 408.3 872.8 431C887.3 453.7 901.7 485.3 916.2 493.5C930.7 501.7 945.3 486.3 952.7 478.7L960 471L960 541L952.7 541C945.3 541 930.7 541 916.2 541C901.7 541 887.3 541 872.8 541C858.3 541 843.7 541 829 541C814.3 541 799.7 541 785.2 541C770.7 541 756.3 541 741.8 541C727.3 541 712.7 541 698.2 541C683.7 541 669.3 541 654.8 541C640.3 541 625.7 541 611 541C596.3 541 581.7 541 567.2 541C552.7 541 538.3 541 523.8 541C509.3 541 494.7 541 480 541C465.3 541 450.7 541 436.2 541C421.7 541 407.3 541 392.8 541C378.3 541 363.7 541 349 541C334.3 541 319.7 541 305.2 541C290.7 541 276.3 541 261.8 541C247.3 541 232.7 541 218.2 541C203.7 541 189.3 541 174.8 541C160.3 541 145.7 541 131 541C116.3 541 101.7 541 87.2 541C72.7 541 58.3 541 43.8 541C29.3 541 14.7 541 7.3 541L0 541Z" fill="#633603" stroke-linecap="round" stroke-linejoin="miter"></path></svg>